<svg width="60" height="60" viewBox="0 0 60 60" fill="yellow" xmlns="http://www.w3.org/2000/svg">
  <path d="M28.00977,5.375c-3.535,1.542 -6.00977,5.06397 -6.00977,9.16797c0,2.3638 0.81788,4.63884 1.9707,6.69727c-1.6018,-1.7333 -3.51452,-3.21461 -5.76367,-3.94531c-3.901,-1.267 -8.01131,-0.011 -10.57031,2.875l-0.44336,4.06055l-2.02539,3.53906c0.374,3.839 2.95738,7.27987 6.85938,8.54688c2.25044,0.73121 4.67024,0.65498 6.98633,0.19336c-2.1453,0.98794 -4.14615,2.34905 -5.53711,4.26367c-2.411,3.319 -2.4872,7.61836 -0.5332,10.94336l3.72656,1.67578l2.73828,3.01953c3.766,0.831 7.83705,-0.56281 10.24805,-3.88281c1.38956,-1.9127 2.06663,-4.23502 2.34375,-6.57812c0.27706,2.34334 0.95209,4.66551 2.3418,6.57813c2.413,3.32 6.47814,4.72163 10.24414,3.89063l2.74414,-3.02539l3.7207,-1.67187c1.954,-3.325 1.88466,-7.62922 -0.52734,-10.94922c-1.38991,-1.91319 -3.38974,-3.27394 -5.5332,-4.26172c2.31432,0.46056 4.73192,0.53529 6.98047,-0.19531c3.904,-1.267 6.49124,-4.70006 6.86523,-8.53906l-2.0293,-3.54687l-0.44141,-4.05273c-2.559,-2.886 -6.67417,-4.14886 -10.57617,-2.88086c-2.24736,0.73021 -4.15669,2.20962 -5.75781,3.94141c1.15213,-2.05785 1.96875,-4.33212 1.96875,-6.69531c0,-4.104 -2.465,-7.62597 -6,-9.16797l-4,0.83203zM27.33008,25.86328c2.38484,2.65856 4.66992,4.3457 4.66992,4.3457c0,0 2.28496,-1.68705 4.66992,-4.3457c-1.79154,3.08971 -2.68945,5.78516 -2.68945,5.78516c0,0 2.31254,1.65265 5.58008,3.09961c-3.4939,-0.74985 -6.33594,-0.77148 -6.33594,-0.77148c0,0 -0.85758,2.70668 -1.22461,6.25781c-0.36702,-3.55107 -1.22461,-6.25781 -1.22461,-6.25781c0,0 -2.84541,0.02244 -6.3418,0.77344c3.26981,-1.44741 5.58398,-3.10352 5.58398,-3.10352c0,0 -0.8963,-2.69371 -2.6875,-5.7832z" />
</svg>