<?xml version="1.0" encoding="UTF-8"?>
<svg version="1.1" xmlns="http://www.w3.org/2000/svg" width="260" height="259">
<path d="M0 0 C3.83172694 0.19261823 4.92071902 0.91584567 7.60546875 3.765625 C8.48000753 4.91668209 9.34036814 6.07862554 10.1875 7.25 C10.84395508 8.11044922 10.84395508 8.11044922 11.51367188 8.98828125 C13.89872868 12.18534976 15.72684713 15.21610432 17 19 C21.94256733 16.20637499 26.81648951 13.31627567 31.66796875 10.3671875 C32.43753906 9.91601562 33.20710937 9.46484375 34 9 C34.67675781 8.59007812 35.35351562 8.18015625 36.05078125 7.7578125 C38 7 38 7 40.11328125 7.0078125 C42 8 42 8 43.23046875 10.5546875 C45.29835016 17.72896996 46.70058753 24.52965887 47 32 C48.02480469 31.53980469 48.02480469 31.53980469 49.0703125 31.0703125 C52.35250825 29.87121699 55.4147665 29.3520125 58.875 28.875 C60.04804688 28.70742188 61.22109375 28.53984375 62.4296875 28.3671875 C65.99096646 28.00092905 69.42288087 27.86552184 73 28 C73.33 28.33 73.66 28.66 74 29 C73.96103657 31.51763701 73.85603595 33.99024922 73.6875 36.5 C73.64117432 37.22380859 73.59484863 37.94761719 73.54711914 38.69335938 C73.16966942 43.95527939 72.3674964 48.8946801 71 54 C72.34191406 54.25523438 72.34191406 54.25523438 73.7109375 54.515625 C81.1792132 56.01246491 88.05858496 57.84917336 95 61 C93.8058977 68.94149961 89.10204295 75.95313428 84 82 C83.67 82.99 83.34 83.98 83 85 C83.69867188 85.23847656 84.39734375 85.47695312 85.1171875 85.72265625 C88.52099414 87.23084699 91.16688899 89.17999423 94.125 91.4375 C95.15882813 92.21996094 96.19265625 93.00242187 97.2578125 93.80859375 C99.32652463 95.46179533 101.19982008 97.06946223 103 99 C101.45688712 102.96155879 98.96708452 104.93971996 95.6875 107.5625 C94.74261719 108.32691406 93.79773438 109.09132813 92.82421875 109.87890625 C86.00552486 115 86.00552486 115 83 115 C85.79362501 119.94256733 88.68372433 124.81648951 91.6328125 129.66796875 C92.08398438 130.43753906 92.53515625 131.20710937 93 132 C93.40992188 132.67675781 93.81984375 133.35351562 94.2421875 134.05078125 C95.17845819 136.4590239 94.70730022 137.57303275 94 140 C91.12754022 140.84306996 88.2525541 141.67465502 85.375 142.5 C84.56675781 142.73847656 83.75851563 142.97695312 82.92578125 143.22265625 C78.49566164 144.48325939 74.65691843 145.30141867 70 145 C70.30679688 145.66 70.61359375 146.32 70.9296875 147 C72.22287179 150.62469173 72.69725092 154.19934425 73.125 158 C73.21136719 158.69867188 73.29773438 159.39734375 73.38671875 160.1171875 C73.81902755 163.75407107 74.20810035 167.33743376 74 171 C73.67 171.33 73.34 171.66 73 172 C63.95985864 171.952793 55.60208781 170.84351759 47 168 C46.97421875 168.64324219 46.9484375 169.28648437 46.921875 169.94921875 C46.44910483 177.48130713 45.30189096 185.14464544 42 192 C40.2578125 193.0625 40.2578125 193.0625 38 193 C30.83344246 189.9834882 24.15852746 185.72631177 18 181 C17.57589844 181.70125 17.15179688 182.4025 16.71484375 183.125 C6.87507131 199.0416429 6.87507131 199.0416429 1 201 C-4.88863585 194.80546098 -9.61483982 188.33143968 -14 181 C-14.84304687 181.57105469 -15.68609375 182.14210937 -16.5546875 182.73046875 C-20.01594607 185.03424831 -23.54147995 187.20477369 -27.125 189.3125 C-27.73214844 189.68439453 -28.33929688 190.05628906 -28.96484375 190.43945312 C-33.42679215 193.04954713 -33.42679215 193.04954713 -36.10986328 192.81762695 C-38 192 -38 192 -39.484375 188.4296875 C-39.92394884 186.91648786 -40.34509685 185.39784331 -40.75 183.875 C-41.08064453 182.75351562 -41.08064453 182.75351562 -41.41796875 181.609375 C-42.73056852 176.92967146 -43.23177151 172.85432544 -43 168 C-43.70382813 168.20496094 -44.40765625 168.40992188 -45.1328125 168.62109375 C-53.03021963 170.77586933 -60.79714788 171.95319343 -69 172 C-69.33 171.67 -69.66 171.34 -70 171 C-69.94879707 162.02668602 -68.50190002 153.59143025 -66 145 C-66.64324219 144.97421875 -67.28648438 144.9484375 -67.94921875 144.921875 C-75.48130713 144.44910483 -83.14464544 143.30189096 -90 140 C-91.06640625 138.265625 -91.06640625 138.265625 -91 136 C-89.70703125 132.94140625 -89.70703125 132.94140625 -87.8125 129.5625 C-87.20019531 128.45003906 -86.58789062 127.33757812 -85.95703125 126.19140625 C-84.15276876 123.24912589 -82.15293282 120.68770843 -80 118 C-79.505 116.515 -79.505 116.515 -79 115 C-79.68707031 114.77054687 -80.37414062 114.54109375 -81.08203125 114.3046875 C-84.66456782 112.70285723 -87.60888265 110.5167684 -90.6875 108.125 C-91.26822266 107.69058594 -91.84894531 107.25617188 -92.44726562 106.80859375 C-95.44610796 104.49965849 -97.69725976 102.61405356 -99 99 C-84.11546841 85 -84.11546841 85 -79 85 C-81.79362501 80.05743267 -84.68372433 75.18351049 -87.6328125 70.33203125 C-88.08398438 69.56246094 -88.53515625 68.79289062 -89 68 C-89.40992188 67.32324219 -89.81984375 66.64648438 -90.2421875 65.94921875 C-91.20112522 63.48267275 -90.95835689 62.44176618 -90 60 C-87.22501566 58.88459459 -84.68674267 58.05555027 -81.8125 57.3125 C-80.67844727 56.99442383 -80.67844727 56.99442383 -79.52148438 56.66992188 C-75.37398385 55.52962902 -71.26242749 54.61862983 -67 54 C-67.2165625 52.69804688 -67.433125 51.39609375 -67.65625 50.0546875 C-67.93774816 48.32816544 -68.21898435 46.60160066 -68.5 44.875 C-68.71462891 43.59109375 -68.71462891 43.59109375 -68.93359375 42.28125 C-69.65398529 37.82168333 -70.28974663 33.53453475 -70 29 C-69.67 28.67 -69.34 28.34 -69 28 C-60.54769232 28.14178064 -52.22155058 29.00748304 -44 31 C-43.81824219 30.10539062 -43.63648438 29.21078125 -43.44921875 28.2890625 C-41.94906647 21.07294538 -40.2778669 14.01130664 -38 7 C-28.81114914 8.13342654 -21.25595779 13.51772078 -14 19 C-13.57589844 18.29875 -13.15179688 17.5975 -12.71484375 16.875 C-8.92803255 10.74952078 -4.94096907 5.24133194 0 0 Z " fill="#FECC04" transform="translate(128,30)"/>
<path d="M0 0 C8.18432894 6.51026166 15.65190401 14.50527411 17.01928711 25.31665039 C18.03653703 39.14403477 16.06865243 48.55497485 7.80859375 59.83984375 C5.71222128 62.23058351 3.65733926 63.98232352 1.0625 65.8125 C0.27488281 66.38226563 -0.51273438 66.95203125 -1.32421875 67.5390625 C-8.2418062 71.43655503 -14.86812599 72.72562986 -22.75 72.625 C-23.58442627 72.61742676 -24.41885254 72.60985352 -25.27856445 72.60205078 C-31.35602681 72.43884146 -36.14540833 71.67726331 -41.25 68.1875 C-42.26900391 67.53394531 -42.26900391 67.53394531 -43.30859375 66.8671875 C-51.70265292 61.05957756 -58.6892329 53.22661349 -61.25 43.1875 C-61.64669819 39.80912081 -61.77279812 36.4624813 -61.8125 33.0625 C-61.82724365 32.22750977 -61.8419873 31.39251953 -61.85717773 30.53222656 C-61.68084189 19.81692042 -56.43722329 11.63358664 -49.21484375 4.05078125 C-35.3070226 -9.21929149 -16.30329609 -9.09222282 0 0 Z " fill="#914800" transform="translate(152.25,96.8125)"/>
<path d="M0 0 C4.47175831 0.54083213 7.71227847 1.65962809 11.625 3.875 C12.54539062 4.38804688 13.46578125 4.90109375 14.4140625 5.4296875 C21.56849004 9.77421903 21.56849004 9.77421903 23 15 C22.9765625 17.55859375 22.9765625 17.55859375 22.625 20.4375 C21.65989278 30.2702394 21.91362268 40.13039424 22 50 C21.67 49.01 21.34 48.02 21 47 C20.34 47 19.68 47 19 47 C17.9044304 45.66755049 16.87325062 44.28183693 15.875 42.875 C12.8949469 38.90990843 9.87781912 36.08042828 5.796875 33.2890625 C4 32 4 32 2.578125 30.4609375 C0.5831558 28.61410958 -1.45555597 27.89399385 -4 27 C-4.52935837 17.1921658 -3.42739837 9.21113311 0 0 Z " fill="#FDB101" transform="translate(90,37)"/>
<path d="M0 0 C1.27500443 2.55000886 0.71367596 3.30128925 0 6 C-0.22013187 9.39299062 -0.18513763 12.78804896 -0.1875 16.1875 C-0.20586914 17.5497168 -0.20586914 17.5497168 -0.22460938 18.93945312 C-0.237085 24.74893485 0.03048306 30.47782094 2 36 C3.93426196 38.08511327 3.93426196 38.08511327 6 39 C5.34 39.99 4.68 40.98 4 42 C3.01 41.01 2.02 40.02 1 39 C0.55011719 39.36351562 0.10023437 39.72703125 -0.36328125 40.1015625 C-14.54103343 51.18237082 -14.54103343 51.18237082 -20.22265625 50.8828125 C-22 50 -22 50 -23.6875 46.4375 C-24.98604206 41.91448832 -25.60776564 37.35924711 -26.0625 32.6875 C-26.14910889 31.99390381 -26.23571777 31.30030762 -26.32495117 30.58569336 C-26.47265625 28.57421875 -26.47265625 28.57421875 -26 25 C-21.35748031 21 -21.35748031 21 -18 21 C-18 20.34 -18 19.68 -18 19 C-17.278125 18.5875 -16.55625 18.175 -15.8125 17.75 C-13.27159291 16.16899114 -12.11261503 15.08943121 -10.3125 12.8125 C-9.549375 11.884375 -8.78625 10.95625 -8 10 C-7.34 10 -6.68 10 -6 10 C-6 9.01 -6 8.02 -6 7 C-4.6875 5.5625 -4.6875 5.5625 -3 4 C-1.98199424 2.68036291 -0.97751635 1.34990354 0 0 Z " fill="#FBB207" transform="translate(112,172)"/>
<path d="M0 0 C0.66 2.31 1.32 4.62 2 7 C2.66 7 3.32 7 4 7 C4 7.99 4 8.98 4 10 C5.32 10.66 6.64 11.32 8 12 C8 12.66 8 13.32 8 14 C9.32 14.66 10.64 15.32 12 16 C12 16.66 12 17.32 12 18 C12.639375 18.268125 13.27875 18.53625 13.9375 18.8125 C16 20 16 20 17 23 C18.94603274 23.59070014 18.94603274 23.59070014 21 24 C21.66 24.66 22.32 25.32 23 26 C22.17798096 25.98952637 21.35596191 25.97905273 20.5090332 25.96826172 C16.77688669 25.92663241 13.0447891 25.90065147 9.3125 25.875 C8.01892578 25.85824219 6.72535156 25.84148437 5.39257812 25.82421875 C4.14541016 25.81777344 2.89824219 25.81132813 1.61328125 25.8046875 C0.46641846 25.79421387 -0.68044434 25.78374023 -1.86206055 25.77294922 C-5.01101294 26.00079686 -7.11204182 26.8124112 -10 28 C-14.38475298 27.10680958 -16.14620599 26.0997429 -18.8984375 22.5546875 C-20.70760505 19.75314956 -22.37994972 16.91442035 -24 14 C-24.66 12.865625 -25.32 11.73125 -26 10.5625 C-27.12278741 7.68535727 -27.15915108 6.80221961 -26 4 C-18.7057747 -0.39349849 -8.24087321 -0.2227263 0 0 Z " fill="#FCB002" transform="translate(64,86)"/>
<path d="M0 0 C1.37562854 1.28965176 2.70766393 2.62689293 4 4 C4 4.66 4 5.32 4 6 C4.556875 6.226875 5.11375 6.45375 5.6875 6.6875 C8.62903619 8.35702054 10.6486362 10.58675821 13 13 C13.66 13.33 14.32 13.66 15 14 C15 14.66 15 15.32 15 16 C15.66 16 16.32 16 17 16 C18.33333333 17.33333333 19.66666667 18.66666667 21 20 C21.85851562 20.42925781 22.71703125 20.85851562 23.6015625 21.30078125 C26 23 26 23 26.62890625 25.4609375 C26.4522157 33.21453473 25.52481156 40.98301402 22 48 C20.28125 49.078125 20.28125 49.078125 18 49 C15.61505544 47.94290501 13.48765933 46.8682111 11.25 45.5625 C10.64800781 45.22412109 10.04601562 44.88574219 9.42578125 44.53710938 C7.94431935 43.70231735 6.47129392 42.85258506 5 42 C5 41.01 5 40.02 5 39 C4.34 39 3.68 39 3 39 C2.67 37.68 2.34 36.36 2 35 C0.68 34.67 -0.64 34.34 -2 34 C-1.67257813 32.9584375 -1.34515625 31.916875 -1.0078125 30.84375 C0.50555614 24.79027543 0.2135585 18.69909529 0.125 12.5 C0.11597656 11.29601562 0.10695312 10.09203125 0.09765625 8.8515625 C0.07423775 5.9008321 0.04143993 2.95052311 0 0 Z " fill="#FCB002" transform="translate(148,174)"/>
<path d="M0 0 C1.38626027 0.06464513 2.77179689 0.14634318 4.15625 0.2421875 C5.23132813 0.31070923 5.23132813 0.31070923 6.328125 0.38061523 C12.26997385 0.86753158 17.34012904 2.36967306 22.65625 5.1171875 C22.04176503 9.12597042 20.78704124 12.28011142 18.90625 15.8671875 C18.41640625 16.83140625 17.9265625 17.795625 17.421875 18.7890625 C15.65625 21.1171875 15.65625 21.1171875 12.953125 21.9453125 C12.19515625 22.00203125 11.4371875 22.05875 10.65625 22.1171875 C9.99625 24.4271875 9.33625 26.7371875 8.65625 29.1171875 C8.16125 28.1271875 8.16125 28.1271875 7.65625 27.1171875 C1.24253634 25.93748231 -5.15166639 25.9662211 -11.65625 25.9921875 C-12.64431641 25.98832031 -13.63238281 25.98445313 -14.65039062 25.98046875 C-15.59720703 25.98175781 -16.54402344 25.98304687 -17.51953125 25.984375 C-18.37458252 25.98550293 -19.22963379 25.98663086 -20.1105957 25.98779297 C-22.51622884 26.02977977 -22.51622884 26.02977977 -25.34375 27.1171875 C-25.67375 26.1271875 -26.00375 25.1371875 -26.34375 24.1171875 C-25.75207031 23.74207031 -25.16039062 23.36695312 -24.55078125 22.98046875 C-18.72933643 19.21029975 -14.02923977 15.66950058 -10.15625 9.8046875 C-9.558125 8.9178125 -8.96 8.0309375 -8.34375 7.1171875 C-7.68375 7.1171875 -7.02375 7.1171875 -6.34375 7.1171875 C-6.22 6.3334375 -6.09625 5.5496875 -5.96875 4.7421875 C-5.00885056 0.71060987 -4.15012575 0.14544833 0 0 Z " fill="#FCB003" transform="translate(200.34375,85.8828125)"/>
<path d="M0 0 C1.32 0.33 2.64 0.66 4 1 C4.495 2.98 4.495 2.98 5 5 C5.66 5 6.32 5 7 5 C7 6.65 7 8.3 7 10 C7.9075 10.165 8.815 10.33 9.75 10.5 C13.76811533 12.35451477 14.56620375 14.07773793 16.43359375 17.9296875 C17.13473306 20.49247255 17.21618177 21.61707474 16 24 C8.9118785 27.56054475 -1.16024531 30.00349286 -9 28 C-10.7109375 25.52734375 -10.7109375 25.52734375 -12 23 C-12.66 22.67 -13.32 22.34 -14 22 C-14.19916016 21.07574219 -14.19916016 21.07574219 -14.40234375 20.1328125 C-15.16918698 17.39623469 -16.3374882 16.59207981 -18.5625 14.875 C-20.50390625 13.3671875 -20.50390625 13.3671875 -22 12 C-22 11.34 -22 10.68 -22 10 C-23.32 9.34 -24.64 8.68 -26 8 C-26 7.34 -26 6.68 -26 6 C-26.61875 5.896875 -27.2375 5.79375 -27.875 5.6875 C-30 5 -30 5 -32 2 C-30.92298828 2.12568359 -30.92298828 2.12568359 -29.82421875 2.25390625 C-19.79641492 3.24045233 -10.03174685 2.68855707 0 2 C0 1.34 0 0.68 0 0 Z " fill="#FCB004" transform="translate(206,146)"/>
<path d="M0 0 C2.06342231 5.48304558 2.39384834 10.46389462 2.65625 16.26953125 C2.82640625 17.62111328 2.82640625 17.62111328 3 19 C3.66 19.33 4.32 19.66 5 20 C5 21.65 5 23.3 5 25 C3.02 25.33 1.04 25.66 -1 26 C-1 26.66 -1 27.32 -1 28 C-3.5 29.5 -3.5 29.5 -6 31 C-6.886875 31.886875 -7.77375 32.77375 -8.6875 33.6875 C-9.450625 34.450625 -10.21375 35.21375 -11 36 C-11.66 36 -12.32 36 -13 36 C-13.33 36.99 -13.66 37.98 -14 39 C-14.66 39 -15.32 39 -16 39 C-16.268125 40.093125 -16.53625 41.18625 -16.8125 42.3125 C-17.930763 45.7850009 -18.43744207 46.71827034 -21 49 C-20.99476318 48.32533691 -20.98952637 47.65067383 -20.98413086 46.95556641 C-20.96311254 43.8453874 -20.95026176 40.73522342 -20.9375 37.625 C-20.92912109 36.56410156 -20.92074219 35.50320312 -20.91210938 34.41015625 C-20.75287401 23.04785968 -20.75287401 23.04785968 -23 12 C-21.35 12 -19.7 12 -18 12 C-17.7525 11.4225 -17.505 10.845 -17.25 10.25 C-15.80606301 7.65091342 -14.26478013 5.92163162 -12 4 C-11.01 4 -10.02 4 -9 4 C-9 3.01 -9 2.02 -9 1 C-6.04335481 -0.4783226 -3.25770263 -0.06032783 0 0 Z " fill="#FCB003" transform="translate(169,39)"/>
<path d="M0 0 C0.99 0.33 1.98 0.66 3 1 C13.51335441 2.6963779 24.38834624 2.09605313 35 2 C33.71034824 3.37562854 32.37310707 4.70766393 31 6 C30.34 6 29.68 6 29 6 C29 6.66 29 7.32 29 8 C24.52941176 12 24.52941176 12 22 12 C21.9175 12.598125 21.835 13.19625 21.75 13.8125 C20.78667588 16.62219534 19.36620289 17.27912517 17 19 C15.86649466 21.01669827 15.86649466 21.01669827 15 23 C14.34 23.66 13.68 24.32 13 25 C12.67 25.99 12.34 26.98 12 28 C-3.77848946 24.91433147 -3.77848946 24.91433147 -9 22 C-9.33 21.01 -9.66 20.02 -10 19 C-9.34 18.34 -8.68 17.68 -8 17 C-7.67 15.989375 -7.34 14.97875 -7 13.9375 C-6 11 -6 11 -4 10 C-3.38833807 8.17696338 -3.38833807 8.17696338 -3 6.0625 C-2.39617423 3.09189285 -2.21308826 2.21308826 0 0 Z " fill="#FCB101" transform="translate(51,146)"/>
<path d="M0 0 C1 2 1 2 0.1875 5.5625 C-1 9 -1 9 -3 10 C-4.23882213 13.27923505 -5.21205747 16.58558238 -6 20 C-5.113125 20.12375 -4.22625 20.2475 -3.3125 20.375 C0 21 0 21 2.4375 22 C5.11400488 23.15907809 5.11400488 23.15907809 8.625 23.5 C12 24 12 24 15 26 C14.25 33.625 14.25 33.625 12 37 C12.45822468 33.53058454 12.89131683 30.32604951 14 27 C13.35675781 26.97421875 12.71351562 26.9484375 12.05078125 26.921875 C4.51869287 26.44910483 -3.14464544 25.30189096 -10 22 C-11.06640625 20.265625 -11.06640625 20.265625 -11 18 C-9.70703125 14.94140625 -9.70703125 14.94140625 -7.8125 11.5625 C-7.20019531 10.45003906 -6.58789062 9.33757812 -5.95703125 8.19140625 C-4.1531878 5.24980925 -2.22126856 2.63498598 0 0 Z " fill="#F3C047" transform="translate(48,148)"/>
<path d="M0 0 C1.32 0 2.64 0 4 0 C4 0.66 4 1.32 4 2 C2.88625 2.474375 1.7725 2.94875 0.625 3.4375 C-8.31486218 7.94712853 -14.99661049 14.85892729 -19 24 C-19.36480469 24.71027344 -19.72960937 25.42054687 -20.10546875 26.15234375 C-21.42889929 30.36536063 -21.32865083 34.42270508 -21.3125 38.8125 C-21.32861328 39.67681641 -21.34472656 40.54113281 -21.36132812 41.43164062 C-21.36575783 47.3010059 -20.36571879 51.62563621 -18 57 C-18.99 57 -19.98 57 -21 57 C-23.62435847 50.45846629 -24.44465507 44.77007751 -24.3125 37.75 C-24.31733398 36.44289063 -24.31733398 36.44289063 -24.32226562 35.109375 C-24.28457803 30.61427258 -24.0494286 27.09123851 -22 23 C-21.32204472 21.00379834 -20.65266469 19.00461299 -20 17 C-19.34 17 -18.68 17 -18 17 C-17.34 15.35 -16.68 13.7 -16 12 C-15.34 12 -14.68 12 -14 12 C-13.67 10.68 -13.34 9.36 -13 8 C-12.360625 7.896875 -11.72125 7.79375 -11.0625 7.6875 C-10.0415625 7.3471875 -10.0415625 7.3471875 -9 7 C-8.67 6.01 -8.34 5.02 -8 4 C-5.10441559 2.5522078 -3.25811062 2 0 2 C0 1.34 0 0.68 0 0 Z " fill="#F3BC18" transform="translate(113,91)"/>
<path d="M0 0 C0.33 0 0.66 0 1 0 C1 2.64 1 5.28 1 8 C-0.47906892 8.02689216 -1.95827483 8.04634621 -3.4375 8.0625 C-4.67306641 8.07990234 -4.67306641 8.07990234 -5.93359375 8.09765625 C-8 8 -8 8 -9 7 C-11.68862664 6.60006314 -14.36352217 6.24865457 -17.0625 5.9375 C-18.20041992 5.80118164 -18.20041992 5.80118164 -19.36132812 5.66210938 C-21.2404301 5.4375626 -23.12016095 5.21829022 -25 5 C-24.69268013 7.64653131 -24.37940678 10.292115 -24.0625 12.9375 C-23.93198242 14.06961914 -23.93198242 14.06961914 -23.79882812 15.22460938 C-23.65675901 18.92187458 -23.65675901 18.92187458 -22 22 C-21.92820036 23.51928038 -21.91607993 25.04167482 -21.9375 26.5625 C-21.94652344 27.38878906 -21.95554687 28.21507813 -21.96484375 29.06640625 C-21.97644531 29.70449219 -21.98804688 30.34257813 -22 31 C-26.40914783 32.10228696 -30.48382401 32.07654536 -35 32 C-35 31.67 -35 31.34 -35 31 C-29.555 30.01 -29.555 30.01 -24 29 C-24.2165625 27.69804688 -24.433125 26.39609375 -24.65625 25.0546875 C-24.93774816 23.32816544 -25.21898435 21.60160066 -25.5 19.875 C-25.64308594 19.0190625 -25.78617188 18.163125 -25.93359375 17.28125 C-26.65398529 12.82168333 -27.28974663 8.53453475 -27 4 C-26.67 3.67 -26.34 3.34 -26 3 C-17.54769232 3.14178064 -9.22155058 4.00748304 -1 6 C-0.67 4.02 -0.34 2.04 0 0 Z " fill="#F5DE7C" transform="translate(85,55)"/>
<path d="M0 0 C2.64 0 5.28 0 8 0 C8 0.33 8 0.66 8 1 C6.02 1 4.04 1 2 1 C2.30679688 1.66 2.61359375 2.32 2.9296875 3 C4.22287179 6.62469173 4.69725092 10.19934425 5.125 14 C5.21136719 14.69867188 5.29773438 15.39734375 5.38671875 16.1171875 C5.81902755 19.75407107 6.20810035 23.33743376 6 27 C5.67 27.33 5.34 27.66 5 28 C2.56698373 27.93472395 0.1746216 27.80764569 -2.25 27.625 C-2.91902344 27.58117187 -3.58804688 27.53734375 -4.27734375 27.4921875 C-7.92231215 27.23439013 -11.4371569 26.81475869 -15 26 C-15 25.67 -15 25.34 -15 25 C-9.06 25 -3.12 25 3 25 C3 19.39 3 13.78 3 8 C2.34 8 1.68 8 1 8 C-0.35439668 5.29120665 -0.06501451 2.99066732 0 0 Z " fill="#F5DD73" transform="translate(196,174)"/>
<path d="M0 0 C4.44271164 0.54387178 7.71904871 1.63947076 11.625 3.8125 C12.54539062 4.31394531 13.46578125 4.81539062 14.4140625 5.33203125 C16.9827473 6.98887175 18.93131518 8.76135281 21 11 C19.68 11.33 18.36 11.66 17 12 C17 11.34 17 10.68 17 10 C16.34 10 15.68 10 15 10 C13 8 13 8 12 6 C10.02 6 8.04 6 6 6 C6 5.34 6 4.68 6 4 C2.88667752 4.66868314 2.88667752 4.66868314 1.8125 7.0625 C1.544375 7.701875 1.27625 8.34125 1 9 C0.34 9 -0.32 9 -1 9 C-1.66 11.64 -2.32 14.28 -3 17 C-4.14974334 12.40102663 -3.52233582 10.6737449 -2.0625 6.25 C-1.68222656 5.07953125 -1.30195312 3.9090625 -0.91015625 2.703125 C-0.60980469 1.81109375 -0.30945313 0.9190625 0 0 Z " fill="#F3C14B" transform="translate(90,37)"/>
<path d="M0 0 C0.66 0 1.32 0 2 0 C0.96232949 6.06732052 -0.33961901 11.4373852 -3 17 C-7.14298667 16.40165275 -10.18194377 14.99335715 -13.8125 12.9375 C-14.78832031 12.38964844 -15.76414063 11.84179688 -16.76953125 11.27734375 C-17.50558594 10.85582031 -18.24164063 10.43429688 -19 10 C-15.25 8.875 -15.25 8.875 -13 10 C-13 9.34 -13 8.68 -13 8 C-12.01 8 -11.02 8 -10 8 C-9.67 8.99 -9.34 9.98 -9 11 C-7.37667033 12.38576923 -5.71275535 13.72641268 -4 15 C-4.33 13.68 -4.66 12.36 -5 11 C-3.68 10.34 -2.36 9.68 -1 9 C-1.020625 7.88625 -1.04125 6.7725 -1.0625 5.625 C-1 2 -1 2 0 0 Z " fill="#F1C864" transform="translate(172,206)"/>
<path d="M0 0 C1.98828125 0.0078125 1.98828125 0.0078125 4 1 C7.58668796 8.44664737 8.67210024 16.81890108 9 25 C9.7425 24.649375 10.485 24.29875 11.25 23.9375 C14 23 14 23 18 24 C13.05 25.485 13.05 25.485 8 27 C8 25.35 8 23.7 8 22 C7.01 21.67 6.02 21.34 5 21 C4.93941406 20.13117187 4.87882813 19.26234375 4.81640625 18.3671875 C4.73261719 17.21476562 4.64882812 16.06234375 4.5625 14.875 C4.48128906 13.73804688 4.40007812 12.60109375 4.31640625 11.4296875 C4.02269035 8.2459522 3.56875687 5.14489093 3 2 C1.35 2 -0.3 2 -2 2 C-1.34 1.34 -0.68 0.68 0 0 Z " fill="#F2CD6B" transform="translate(166,37)"/>
<path d="M0 0 C2.475 0.99 2.475 0.99 5 2 C1.80009492 4.74277578 -1.00499382 6.6302836 -5 8 C-2.84921278 11.85658398 -0.76544722 15.54319097 2 19 C1.67 19.66 1.34 20.32 1 21 C-0.32 20.34 -1.64 19.68 -3 19 C-3 17.35 -3 15.7 -3 14 C-3.99 14.33 -4.98 14.66 -6 15 C-6.33 12.03 -6.66 9.06 -7 6 C-6.01 6 -5.02 6 -4 6 C-4 5.34 -4 4.68 -4 4 C-2.68 4 -1.36 4 0 4 C0 2.68 0 1.36 0 0 Z " fill="#F9D755" transform="translate(216,137)"/>
<path d="M0 0 C0.66 0.33 1.32 0.66 2 1 C2 1.66 2 2.32 2 3 C-3.41176471 7 -3.41176471 7 -6 7 C-6.268125 7.804375 -6.53625 8.60875 -6.8125 9.4375 C-7.204375 10.283125 -7.59625 11.12875 -8 12 C-8.99 12.33 -9.98 12.66 -11 13 C-11.33 13.66 -11.66 14.32 -12 15 C-13.98 15 -15.96 15 -18 15 C-6.90587849 3.19012872 -6.90587849 3.19012872 0 2 C0 1.34 0 0.68 0 0 Z " fill="#F6D84B" transform="translate(49,113)"/>
<path d="M0 0 C3.08089673 2.77280706 4.68775452 5.06326356 6 9 C9.52954678 7.02345381 12.9844719 5.05085894 16.3125 2.75 C19 1 19 1 21 1 C21 1.66 21 2.32 21 3 C20.01 3 19.02 3 18 3 C17.67 3.99 17.34 4.98 17 6 C14.875 8.6875 14.875 8.6875 12 11 C8.1875 11.3125 8.1875 11.3125 5 11 C5 10.01 5 9.02 5 8 C4.360625 7.79375 3.72125 7.5875 3.0625 7.375 C1 6 1 6 0.25 2.875 C0.1675 1.92625 0.085 0.9775 0 0 Z " fill="#F2C453" transform="translate(139,40)"/>
<path d="M0 0 C0.33 1.32 0.66 2.64 1 4 C1.66 4 2.32 4 3 4 C2.67 4.66 2.34 5.32 2 6 C0.02 4.68 -1.96 3.36 -4 2 C-4.45890625 2.75925781 -4.9178125 3.51851562 -5.390625 4.30078125 C-6.00421875 5.29464844 -6.6178125 6.28851563 -7.25 7.3125 C-8.15492188 8.79169922 -8.15492188 8.79169922 -9.078125 10.30078125 C-10.87840898 12.82922888 -12.41840585 14.326533 -15 16 C-14.67 14.35 -14.34 12.7 -14 11 C-13.34 11 -12.68 11 -12 11 C-12 9.68 -12 8.36 -12 7 C-11.34 7 -10.68 7 -10 7 C-9.731875 6.401875 -9.46375 5.80375 -9.1875 5.1875 C-6.76780696 0.73017072 -5.14601456 -0.41724442 0 0 Z " fill="#F5D359" transform="translate(150,209)"/>
<path d="M0 0 C2.41796875 0.37109375 2.41796875 0.37109375 5 1 C6.3125 3.0625 6.3125 3.0625 7 5 C5.8553125 4.4740625 5.8553125 4.4740625 4.6875 3.9375 C1.95240621 2.67639116 1.95240621 2.67639116 -1 4 C-2.39267198 6.25336674 -2.39267198 6.25336674 -3.5625 8.9375 C-5.81550802 13.81550802 -5.81550802 13.81550802 -8 16 C-8.99 16 -9.98 16 -11 16 C-9.55049595 11.64352355 -7.32252888 8.68242711 -4.375 5.1875 C-3.55773437 4.21167969 -2.74046875 3.23585937 -1.8984375 2.23046875 C-1.27195312 1.49441406 -0.64546875 0.75835938 0 0 Z " fill="#F6D53C" transform="translate(128,30)"/>
<path d="M0 0 C1.41805831 0.28482368 2.83440379 0.57818144 4.25 0.875 C5.03890625 1.03742188 5.8278125 1.19984375 6.640625 1.3671875 C8.96831144 1.99150075 10.89031952 2.84838542 13 4 C12.39301257 8.12751449 10.96189209 11.3321148 9 15 C8.67 15 8.34 15 8 15 C7.875 8.25 7.875 8.25 9 6 C8.01 5.67 7.02 5.34 6 5 C6 4.34 6 3.68 6 3 C5.38125 2.87625 4.7625 2.7525 4.125 2.625 C2 2 2 2 0 0 Z " fill="#F0C55A" transform="translate(210,87)"/>
<path d="M0 0 C0.33 0 0.66 0 1 0 C1.06058594 0.85464844 1.12117188 1.70929688 1.18359375 2.58984375 C1.26738281 3.69457031 1.35117187 4.79929687 1.4375 5.9375 C1.51871094 7.03964844 1.59992187 8.14179687 1.68359375 9.27734375 C1.70418084 11.91109903 1.70418084 11.91109903 3 13 C3.07179964 14.51928038 3.08392007 16.04167482 3.0625 17.5625 C3.05347656 18.38878906 3.04445313 19.21507813 3.03515625 20.06640625 C3.02355469 20.70449219 3.01195312 21.34257813 3 22 C-1.40914783 23.10228696 -5.48382401 23.07654536 -10 23 C-10 22.67 -10 22.34 -10 22 C-4.555 21.01 -4.555 21.01 1 20 C0.67 18.535625 0.34 17.07125 0 15.5625 C-0.99882683 10.58961748 -1.24114546 6.06405465 -1 1 C-0.67 0.67 -0.34 0.34 0 0 Z " fill="#F4DA72" transform="translate(60,64)"/>
<path d="M0 0 C0.33 0.33 0.66 0.66 1 1 C0.96122705 3.55901479 0.85349386 6.07369714 0.6875 8.625 C0.65205078 9.32496094 0.61660156 10.02492188 0.58007812 10.74609375 C0.28903284 15.42888205 -0.56362555 19.53258231 -2 24 C-3.00953985 20.97138044 -3.01252048 19.63915009 -2.66015625 16.55078125 C-2.56669922 15.70322266 -2.47324219 14.85566406 -2.37695312 13.98242188 C-2.22129883 12.66081055 -2.22129883 12.66081055 -2.0625 11.3125 C-1.96259766 10.41982422 -1.86269531 9.52714844 -1.75976562 8.60742188 C-1.5123544 6.40428379 -1.25694088 4.20204703 -1 2 C-5.62 2 -10.24 2 -15 2 C-15 1.67 -15 1.34 -15 1 C-9.95052873 0.29130228 -5.11509204 -0.20877927 0 0 Z " fill="#F3E69F" transform="translate(201,58)"/>
<path d="M0 0 C-0.78375 0.0825 -1.5675 0.165 -2.375 0.25 C-5.14749104 0.72806339 -5.14749104 0.72806339 -6.3125 3.0625 C-6.539375 3.701875 -6.76625 4.34125 -7 5 C-7.66 5 -8.32 5 -9 5 C-8.690625 6.175625 -8.690625 6.175625 -8.375 7.375 C-8.25125 8.24125 -8.1275 9.1075 -8 10 C-8.66 10.66 -9.32 11.32 -10 12 C-13.04223936 6.64565873 -13.04223936 6.64565873 -12.86328125 3.91015625 C-12 2 -12 2 -10.0390625 0.91796875 C-8.84410156 0.55638672 -8.84410156 0.55638672 -7.625 0.1875 C-6.83351563 -0.06644531 -6.04203125 -0.32039063 -5.2265625 -0.58203125 C-3 -1 -3 -1 0 0 Z " fill="#F2C25A" transform="translate(50,88)"/>
<path d="M0 0 C3.00373279 3.36418073 3.00373279 3.36418073 2.98828125 5.99609375 C2 8 2 8 -0.8359375 9.30078125 C-2.58777344 9.80158203 -2.58777344 9.80158203 -4.375 10.3125 C-5.53773438 10.65925781 -6.70046875 11.00601563 -7.8984375 11.36328125 C-11 12 -11 12 -14 11 C-13.34 10.01 -12.68 9.02 -12 8 C-9.03 8.495 -9.03 8.495 -6 9 C-6 8.34 -6 7.68 -6 7 C-5.195625 6.773125 -4.39125 6.54625 -3.5625 6.3125 C-2.716875 5.879375 -1.87125 5.44625 -1 5 C-0.10613836 2.45224694 -0.10613836 2.45224694 0 0 Z " fill="#F3BF57" transform="translate(220,162)"/>
<path d="M0 0 C0.33 0 0.66 0 1 0 C1 4.29 1 8.58 1 13 C10.405 12.505 10.405 12.505 20 12 C20 12.33 20 12.66 20 13 C5.78361982 15.39433771 5.78361982 15.39433771 0 15 C-0.33 14.67 -0.66 14.34 -1 14 C-0.90968426 11.64305046 -0.75311872 9.28846418 -0.5625 6.9375 C-0.46066406 5.64714844 -0.35882813 4.35679687 -0.25390625 3.02734375 C-0.17011719 2.02832031 -0.08632813 1.02929688 0 0 Z " fill="#F4E5A3" transform="translate(59,187)"/>
<path d="M0 0 C2.99220268 1.36370299 5.29026529 2.94908083 7.75 5.125 C8.67039063 5.93324219 8.67039063 5.93324219 9.609375 6.7578125 C10.06828125 7.16773438 10.5271875 7.57765625 11 8 C9.25 11.875 9.25 11.875 7 13 C6.67 10.69 6.34 8.38 6 6 C3.36 5.67 0.72 5.34 -2 5 C-1.34 3.35 -0.68 1.7 0 0 Z " fill="#F6DC57" transform="translate(220,121)"/>
<path d="M0 0 C0.66 0 1.32 0 2 0 C2.66 0.99 3.32 1.98 4 3 C6.05003955 4.19232613 6.05003955 4.19232613 8 5 C7.67 5.99 7.34 6.98 7 8 C9.64 7.34 12.28 6.68 15 6 C13.60840337 9.47899158 12.36748512 10.48052501 9 12 C7.68181446 10.56771184 6.37063296 9.12897516 5.0625 7.6875 C4.33160156 6.88699219 3.60070312 6.08648437 2.84765625 5.26171875 C1 3 1 3 0 0 Z " fill="#F1E185" transform="translate(120,219)"/>
<path d="M0 0 C0.99 0 1.98 0 3 0 C2.690625 0.598125 2.38125 1.19625 2.0625 1.8125 C0.89790296 4.08956772 0.89790296 4.08956772 0 7 C0.7425 7.2475 1.485 7.495 2.25 7.75 C5.20124062 9.09147301 6.84814974 10.60905526 9 13 C7.35 12.67 5.7 12.34 4 12 C4 11.34 4 10.68 4 10 C2.35 10 0.7 10 -1 10 C-2.25 3.375 -2.25 3.375 0 0 Z " fill="#F4D45E" transform="translate(211,108)"/>
<path d="M0 0 C0.99 0 1.98 0 3 0 C3.33 0.99 3.66 1.98 4 3 C4.66 3.33 5.32 3.66 6 4 C6 4.66 6 5.32 6 6 C0.71201818 5.58525633 -2.11690718 4.64775386 -6 1 C-3.03 1.495 -3.03 1.495 0 2 C0 1.34 0 0.68 0 0 Z " fill="#F5BF3F" transform="translate(159,214)"/>
<path d="M0 0 C1.22589844 0.15275391 1.22589844 0.15275391 2.4765625 0.30859375 C3.41628906 0.43427734 3.41628906 0.43427734 4.375 0.5625 C3.715 1.8825 3.055 3.2025 2.375 4.5625 C1.385 3.5725 0.395 2.5825 -0.625 1.5625 C-1.57375 2.3875 -2.5225 3.2125 -3.5 4.0625 C-6.375 6.5625 -6.375 6.5625 -8.625 6.5625 C-8.625 5.5725 -8.625 4.5825 -8.625 3.5625 C-7.965 3.5625 -7.305 3.5625 -6.625 3.5625 C-6.625 2.5725 -6.625 1.5825 -6.625 0.5625 C-4.10446405 -0.69776798 -2.7707902 -0.35624445 0 0 Z " fill="#F3C23F" transform="translate(113.625,209.4375)"/>
<path d="M0 0 C1.43088528 2.86177057 0.59991697 4.93375773 0 8 C-0.61875 8.061875 -1.2375 8.12375 -1.875 8.1875 C-4.27761141 8.828919 -4.27761141 8.828919 -5.25 11.5625 C-5.4975 12.366875 -5.745 13.17125 -6 14 C-6.66 14 -7.32 14 -8 14 C-6.58036591 8.32146365 -3.60636039 4.46825784 0 0 Z " fill="#F1C45D" transform="translate(48,148)"/>
<path d="M0 0 C0.33 1.32 0.66 2.64 1 4 C-0.28716647 5.00578589 -1.57988658 6.00446798 -2.875 7 C-3.59429687 7.556875 -4.31359375 8.11375 -5.0546875 8.6875 C-7 10 -7 10 -9 10 C-9 10.66 -9 11.32 -9 12 C-10.32 11.67 -11.64 11.34 -13 11 C-11.87926138 10.16094435 -10.75325453 9.32892169 -9.625 8.5 C-8.99851563 8.0359375 -8.37203125 7.571875 -7.7265625 7.09375 C-6 6 -6 6 -4 6 C-3.566875 5.071875 -3.566875 5.071875 -3.125 4.125 C-2 2 -2 2 0 0 Z " fill="#F3BC1D" transform="translate(162,153)"/>
<path d="M0 0 C0.33 0 0.66 0 1 0 C1.10957031 0.7734375 1.21914062 1.546875 1.33203125 2.34375 C2.28539729 8.60651229 3.5310138 14.16421443 6 20 C5.01 20 4.02 20 3 20 C0.18447274 13.21256822 -0.3689719 7.31110994 0 0 Z " fill="#F8C21E" transform="translate(89,128)"/>
<path d="M0 0 C2.10954744 3.37685019 2.09148822 5.33825995 1.25 9.1875 C1.06953125 10.06792969 0.8890625 10.94835938 0.703125 11.85546875 C0.47109375 12.56316406 0.2390625 13.27085938 0 14 C-0.99 14.495 -0.99 14.495 -2 15 C-2.21755666 9.5610835 -2.10428384 5.12919186 0 0 Z " fill="#F2B118" transform="translate(88,48)"/>
<path d="M0 0 C4.51478398 0.53115106 7.34666857 2.36620292 11 5 C10.67 6.32 10.34 7.64 10 9 C9.67 8.01 9.34 7.02 9 6 C7.3364521 5.32558869 5.66933058 4.6599679 4 4 C1.6875 1.875 1.6875 1.875 0 0 Z " fill="#F7DA65" transform="translate(40,139)"/>
<path d="M0 0 C4 0 4 0 6.5625 2.3125 C7.366875 3.199375 8.17125 4.08625 9 5 C9.61875 5.515625 10.2375 6.03125 10.875 6.5625 C11.431875 7.2740625 11.431875 7.2740625 12 8 C11.5703125 10.08984375 11.5703125 10.08984375 11 12 C10.54109375 11.46890625 10.0821875 10.9378125 9.609375 10.390625 C6.50506283 6.81675301 3.41818688 3.28145941 0 0 Z " fill="#F3BB20" transform="translate(151,96)"/>
<path d="M0 0 C4.20626034 1.50223584 5.73900021 4.28550034 8 8 C7.67 8.66 7.34 9.32 7 10 C5.68 9.34 4.36 8.68 3 8 C3 6.35 3 4.7 3 3 C2.01 3.33 1.02 3.66 0 4 C0 2.68 0 1.36 0 0 Z " fill="#F3C454" transform="translate(210,148)"/>
<path d="M0 0 C0 0.99 0 1.98 0 3 C-5.61 2.67 -11.22 2.34 -17 2 C-17 1.67 -17 1.34 -17 1 C-5.47835991 -0.14806378 -5.47835991 -0.14806378 0 0 Z " fill="#E8AF1B" transform="translate(142,89)"/>
<path d="M0 0 C2.38639606 2.14775645 3.87068782 3.67291626 5.0625 6.6875 C5.371875 7.450625 5.68125 8.21375 6 9 C6.99 9.33 7.98 9.66 9 10 C7.68 10.33 6.36 10.66 5 11 C5 10.01 5 9.02 5 8 C4.360625 7.79375 3.72125 7.5875 3.0625 7.375 C1 6 1 6 0.25 2.875 C0.1675 1.92625 0.085 0.9775 0 0 Z " fill="#F6DB6C" transform="translate(139,40)"/>
<path d="M0 0 C0.66 0.33 1.32 0.66 2 1 C2 1.99 2 2.98 2 4 C2.66 4.33 3.32 4.66 4 5 C4 5.99 4 6.98 4 8 C4.66 8.33 5.32 8.66 6 9 C5.67 9.99 5.34 10.98 5 12 C3.96674014 10.57140593 2.94872366 9.13177617 1.9375 7.6875 C1.36902344 6.88699219 0.80054688 6.08648437 0.21484375 5.26171875 C-0.18605469 4.51535156 -0.58695313 3.76898438 -1 3 C-0.67 2.01 -0.34 1.02 0 0 Z " fill="#F3CA66" transform="translate(42,99)"/>
<path d="M0 0 C5.61 0 11.22 0 17 0 C17 0.33 17 0.66 17 1 C11.39 1.66 5.78 2.32 0 3 C0 2.01 0 1.02 0 0 Z " fill="#FDC81D" transform="translate(119,89)"/>
<path d="M0 0 C4.21912747 0.4794463 6.79663178 1.16625119 10 4 C9.37351562 3.97679687 8.74703125 3.95359375 8.1015625 3.9296875 C7.28429687 3.91164062 6.46703125 3.89359375 5.625 3.875 C4.40683594 3.84019531 4.40683594 3.84019531 3.1640625 3.8046875 C0.78657757 3.78629949 0.78657757 3.78629949 -1 6 C-0.67 4.02 -0.34 2.04 0 0 Z " fill="#F3D58F" transform="translate(90,37)"/>
<path d="M0 0 C3.93673644 1.31224548 6.22719294 2.91910327 9 6 C7.68 6.33 6.36 6.66 5 7 C5 6.34 5 5.68 5 5 C4.34 5 3.68 5 3 5 C1 3 1 3 0 0 Z " fill="#F3C657" transform="translate(102,42)"/>
<path d="M0 0 C0.66 0.33 1.32 0.66 2 1 C2 1.66 2 2.32 2 3 C-3.14209827 7.09030544 -3.14209827 7.09030544 -6.375 6.75 C-6.91125 6.5025 -7.4475 6.255 -8 6 C-2.25 2 -2.25 2 0 2 C0 1.34 0 0.68 0 0 Z " fill="#F7DF6D" transform="translate(49,113)"/>
<path d="M0 0 C1.134375 0.020625 2.26875 0.04125 3.4375 0.0625 C2.7775 0.7225 2.1175 1.3825 1.4375 2.0625 C0.1175 2.0625 -1.2025 2.0625 -2.5625 2.0625 C-2.5625 3.7125 -2.5625 5.3625 -2.5625 7.0625 C-3.2225 7.0625 -3.8825 7.0625 -4.5625 7.0625 C-4.60504356 5.06295254 -4.60330783 3.06208364 -4.5625 1.0625 C-3.5625 0.0625 -3.5625 0.0625 0 0 Z " fill="#F2E592" transform="translate(62.5625,57.9375)"/>
<path d="M0 0 C2.375 0.25 2.375 0.25 5 1 C6.3125 3.0625 6.3125 3.0625 7 5 C6.236875 4.649375 5.47375 4.29875 4.6875 3.9375 C1.95240621 2.67639116 1.95240621 2.67639116 -1 4 C-1.33 4.66 -1.66 5.32 -2 6 C-2.66 5.67 -3.32 5.34 -4 5 C-2.68 3.35 -1.36 1.7 0 0 Z " fill="#F4E38E" transform="translate(128,30)"/>
<path d="M0 0 C1.5625 1.75 1.5625 1.75 3 4 C2.6875 6.25 2.6875 6.25 2 8 C0.68 7.67 -0.64 7.34 -2 7 C-1.34 4.69 -0.68 2.38 0 0 Z " fill="#E9C865" transform="translate(220,162)"/>
<path d="M0 0 C4 5 4 5 8 10 C7.01 10.495 7.01 10.495 6 11 C6 10.34 6 9.68 6 9 C5.01 8.67 4.02 8.34 3 8 C0.2332241 5.02827774 0 4.25809375 0 0 Z " fill="#F2BB1F" transform="translate(95,149)"/>
<path d="M0 0 C4.455 2.97 4.455 2.97 9 6 C7.68 6.33 6.36 6.66 5 7 C4.67 6.01 4.34 5.02 4 4 C1.98491642 3.26676204 1.98491642 3.26676204 0 3 C0 2.01 0 1.02 0 0 Z " fill="#F3BB21" transform="translate(103,159)"/>
<path d="M0 0 C1.98 0.99 1.98 0.99 4 2 C2.25 5.875 2.25 5.875 0 7 C0 4.69 0 2.38 0 0 Z " fill="#EDDD71" transform="translate(227,127)"/>
<path d="M0 0 C2.31 0 4.62 0 7 0 C6.38125 0.4125 5.7625 0.825 5.125 1.25 C2.93231719 3.05573879 2.07211583 4.4090534 1 7 C0.67 4.69 0.34 2.38 0 0 Z " fill="#F8CC10" transform="translate(60,60)"/>
<path d="M0 0 C0.33 0 0.66 0 1 0 C1 1.65 1 3.3 1 5 C-0.65 5.33 -2.3 5.66 -4 6 C-4.33 4.68 -4.66 3.36 -5 2 C-4.01 2.33 -3.02 2.66 -2 3 C-1.34 2.01 -0.68 1.02 0 0 Z " fill="#F5CE43" transform="translate(116,46)"/>
<path d="M0 0 C2.31 0 4.62 0 7 0 C2.25 4 2.25 4 0 4 C0 2.68 0 1.36 0 0 Z " fill="#F2C259" transform="translate(96,217)"/>
<path d="M0 0 C1.32 0.33 2.64 0.66 4 1 C2.35 2.65 0.7 4.3 -1 6 C-1.33 4.68 -1.66 3.36 -2 2 C-1.34 2 -0.68 2 0 2 C0 1.34 0 0.68 0 0 Z " fill="#F7DB64" transform="translate(223,133)"/>
<path d="M0 0 C0.66 0 1.32 0 2 0 C2.66 0.99 3.32 1.98 4 3 C6.05003955 4.19232613 6.05003955 4.19232613 8 5 C7.67 5.66 7.34 6.32 7 7 C3.17053157 5.54744301 1.87949705 3.57104439 0 0 Z " fill="#F3D956" transform="translate(120,219)"/>
<path d="M0 0 C0.99 0.33 1.98 0.66 3 1 C1.6875 3 1.6875 3 0 5 C-0.99 5 -1.98 5 -3 5 C-1.125 1.125 -1.125 1.125 0 0 Z " fill="#F6D95E" transform="translate(123,36)"/>
</svg>
